PathFileType  4	(X/Y/Z) D:\Research_projects\MuscleProsody\BulkSports2Dtrack\RetrackedSports2D\p1_sample60_cam3\p1_sample60_cam3_Sports2D\pose-3d
DataRate	CameraRate	NumFrames	NumMarkers	Units	OrigDataRate	OrigDataStartFrame	OrigNumFrames
60.0	60.0	10	22	m	60.0	585	780
Frame#	Time	Hip			RHip			RKnee			RAnkle			RBigToe			RSmallToe			RHeel			LHip			LKnee			LAnkle			LBigToe			LSmallToe			LHeel			Neck			Head			Nose			RShoulder			RElbow			RWrist			LShoulder			LElbow			LWrist			
		X1	Y1	Z1	X2	Y2	Z2	X3	Y3	Z3	X4	Y4	Z4	X5	Y5	Z5	X6	Y6	Z6	X7	Y7	Z7	X8	Y8	Z8	X9	Y9	Z9	X10	Y10	Z10	X11	Y11	Z11	X12	Y12	Z12	X13	Y13	Z13	X14	Y14	Z14	X15	Y15	Z15	X16	Y16	Z16	X17	Y17	Z17	X18	Y18	Z18	X19	Y19	Z19	X20	Y20	Z20	X21	Y21	Z21	X22	Y22	Z22	

586	9.7500000	0.5307981	0.8454954	0.0301000	0.4491596	0.8174514	0.0301000	0.5823159	0.4606191	0.1290000	0.7715950	0.1527432	0.0230000	0.7004690	-0.0107573	0.2179000	0.6822958	0.0207233	0.1804000	0.8406008	0.1308652	-0.0119000	0.6086467	0.8668321	0.0301000	0.7343249	0.4952516	0.1290000	0.9154760	0.1357391	0.0230000	0.8445020	-0.0167908	0.2179000	0.9115331	-0.0057824	0.1804000	0.9731570	0.1261329	-0.0119000	0.2805232	1.4026307	0.0008000	0.0780629	1.6363305	0.0655000	0.0968172	1.4478297	0.1076000	0.2234871	1.2648300	-0.0127500	0.2394442	0.9956618	0.0702000	0.1871386	1.0072799	0.1076000	0.4822538	1.3685257	-0.0127500	0.5235252	1.0718957	0.0702000	0.2643167	0.8945097	0.1076000
587	9.7666667	0.5306085	0.8454848	0.0301000	0.4489315	0.8174313	0.0301000	0.5822026	0.4604187	0.1290000	0.7715659	0.1529125	0.0230000	0.7004657	-0.0108283	0.2179000	0.6823267	0.0205263	0.1804000	0.8404151	0.1307991	-0.0119000	0.6081659	0.8667587	0.0301000	0.7339047	0.4951561	0.1290000	0.9154873	0.1357867	0.0230000	0.8448156	-0.0167397	0.2179000	0.9115391	-0.0056630	0.1804000	0.9732532	0.1259705	-0.0119000	0.2803563	1.4026621	0.0008000	0.0773737	1.6361311	0.0655000	0.0963696	1.4473895	0.1076000	0.2240335	1.2652118	-0.0127500	0.2414709	0.9963161	0.0702000	0.1843901	1.0064010	0.1076000	0.4820159	1.3686413	-0.0127500	0.5289553	1.0735338	0.0702000	0.2724995	0.8956925	0.1076000
588	9.7833333	0.5304129	0.8452269	0.0301000	0.4486124	0.8171937	0.0301000	0.5822036	0.4601454	0.1290000	0.7716576	0.1532522	0.0230000	0.7005806	-0.0108557	0.2179000	0.6822971	0.0205223	0.1804000	0.8402920	0.1307792	-0.0119000	0.6075572	0.8664724	0.0301000	0.7334857	0.4951047	0.1290000	0.9154439	0.1360815	0.0230000	0.8454752	-0.0166699	0.2179000	0.9117856	-0.0055562	0.1804000	0.9731677	0.1258474	-0.0119000	0.2802764	1.4027549	0.0008000	0.0763032	1.6358328	0.0655000	0.0958619	1.4467518	0.1076000	0.2245583	1.2656224	-0.0127500	0.2429914	0.9975399	0.0702000	0.1766913	1.0040490	0.1076000	0.4819149	1.3690382	-0.0127500	0.5370468	1.0764418	0.0702000	0.2853733	0.8982698	0.1076000
589	9.8000000	0.5302033	0.8447170	0.0301000	0.4482167	0.8167379	0.0301000	0.5823255	0.4598244	0.1290000	0.7718588	0.1537560	0.0230000	0.7007789	-0.0108713	0.2179000	0.6822143	0.0206681	0.1804000	0.8402392	0.1308506	-0.0119000	0.6068506	0.8659550	0.0301000	0.7331007	0.4950450	0.1290000	0.9153347	0.1365850	0.0230000	0.8464308	-0.0166139	0.2179000	0.9122461	-0.0055180	0.1804000	0.9729248	0.1257674	-0.0119000	0.2802925	1.4028865	0.0008000	0.0749233	1.6354669	0.0655000	0.0953146	1.4459504	0.1076000	0.2250043	1.2660199	-0.0127500	0.2438850	0.9992180	0.0702000	0.1644693	1.0002753	0.1076000	0.4819547	1.3696810	-0.0127500	0.5473802	1.0805777	0.0702000	0.3029078	0.9025215	0.1076000
590	9.8166667	0.5299518	0.8439887	0.0301000	0.4477522	0.8161038	0.0301000	0.5825526	0.4594891	0.1290000	0.7721491	0.1544140	0.0230000	0.7010205	-0.0109261	0.2179000	0.6820935	0.0208873	0.1804000	0.8402454	0.1310632	-0.0119000	0.6060753	0.8652182	0.0301000	0.7327690	0.4949244	0.1290000	0.9151620	0.1372373	0.0230000	0.8475939	-0.0165983	0.2179000	0.9128589	-0.0055956	0.1804000	0.9725667	0.1257341	-0.0119000	0.2803996	1.4030244	0.0008000	0.0733175	1.6350769	0.0655000	0.0947359	1.4450373	0.1076000	0.2252940	1.2663606	-0.0127500	0.2441354	1.0011569	0.0702000	0.1484269	0.9952250	0.1076000	0.4821283	1.3705254	-0.0127500	0.5594404	1.0858683	0.0702000	0.3250196	0.9088155	0.1076000
591	9.8333333	0.5296178	0.8430925	0.0301000	0.4472150	0.8153531	0.0301000	0.5828577	0.4591541	0.1290000	0.7725051	0.1552135	0.0230000	0.7012788	-0.0110646	0.2179000	0.6819543	0.0211132	0.1804000	0.8402782	0.1314480	-0.0119000	0.6052553	0.8642987	0.0301000	0.7325007	0.4946940	0.1290000	0.9149481	0.1379718	0.0230000	0.8488588	-0.0166359	0.2179000	0.9135491	-0.0058101	0.1804000	0.9721351	0.1257374	-0.0119000	0.2805835	1.4031441	0.0008000	0.0715673	1.6347061	0.0655000	0.0941145	1.4440862	0.1076000	0.2253484	1.2666009	-0.0127500	0.2438306	1.0031509	0.0702000	0.1294710	0.9891332	0.1076000	0.4824204	1.3715190	-0.0127500	0.5726659	1.0922208	0.0702000	0.3515620	0.9175312	0.1076000
592	9.8500000	0.5291708	0.8420805	0.0301000	0.4466071	0.8145390	0.0301000	0.5832149	0.4588003	0.1290000	0.7729122	0.1561178	0.0230000	0.7015370	-0.0113076	0.2179000	0.6818174	0.0213109	0.1804000	0.8403105	0.1319940	-0.0119000	0.6044221	0.8632397	0.0301000	0.7323048	0.4943039	0.1290000	0.9147348	0.1387141	0.0230000	0.8501160	-0.0167276	0.2179000	0.9142446	-0.0061545	0.1804000	0.9716743	0.1257587	-0.0119000	0.2808239	1.4032292	0.0008000	0.0697456	1.6343846	0.0655000	0.0934294	1.4431766	0.1076000	0.2251055	1.2666959	-0.0127500	0.2431350	1.0050352	0.0702000	0.1086504	0.9823019	0.1076000	0.4828108	1.3726041	-0.0127500	0.5864823	1.0995188	0.0702000	0.3822818	0.9289633	0.1076000
593	9.8666667	0.5286113	0.8410016	0.0301000	0.4459516	0.8136956	0.0301000	0.5836083	0.4583801	0.1290000	0.7733790	0.1570434	0.0230000	0.7017794	-0.0116467	0.2179000	0.6817032	0.0214779	0.1804000	0.8403509	0.1326305	-0.0119000	0.6036296	0.8620924	0.0301000	0.7321944	0.4937147	0.1290000	0.9145758	0.1393779	0.0230000	0.8512628	-0.0168665	0.2179000	0.9148860	-0.0065993	0.1804000	0.9712389	0.1257799	-0.0119000	0.2810868	1.4032642	0.0008000	0.0679186	1.6341252	0.0655000	0.0926683	1.4423738	0.1076000	0.2245252	1.2665982	-0.0127500	0.2422565	1.0067083	0.0702000	0.0871156	0.9750692	0.1076000	0.4832803	1.3737245	-0.0127500	0.6003170	1.1076120	0.0702000	0.4167225	0.9432159	0.1076000
594	9.8833333	0.5279667	0.8399051	0.0301000	0.4452835	0.8128486	0.0301000	0.5840340	0.4578434	0.1290000	0.7739301	0.1578754	0.0230000	0.7020001	-0.0120469	0.2179000	0.6816320	0.0216310	0.1804000	0.8404270	0.1332361	-0.0119000	0.6029471	0.8609306	0.0301000	0.7321868	0.4929292	0.1290000	0.9145175	0.1398807	0.0230000	0.8522234	-0.0170348	0.2179000	0.9154346	-0.0070929	0.1804000	0.9708846	0.1257779	-0.0119000	0.2813168	1.4032317	0.0008000	0.0661502	1.6339287	0.0655000	0.0918389	1.4417209	0.1076000	0.2235841	1.2662595	-0.0127500	0.2414062	1.0081296	0.0702000	0.0660266	0.9677770	0.1076000	0.4838115	1.3748352	-0.0127500	0.6136274	1.1163158	0.0702000	0.4541432	0.9601198	0.1076000
595	9.9000000	0.5272714	0.8388496	0.0301000	0.4446288	0.8120264	0.0301000	0.5844886	0.4571700	0.1290000	0.7745787	0.1585140	0.0230000	0.7022108	-0.0124595	0.2179000	0.6816205	0.0217944	0.1804000	0.8405434	0.1336853	-0.0119000	0.6024319	0.8598441	0.0301000	0.7322918	0.4920069	0.1290000	0.9145817	0.1401709	0.0230000	0.8529631	-0.0172054	0.2179000	0.9158767	-0.0075707	0.1804000	0.9706482	0.1257244	-0.0119000	0.2814484	1.4031136	0.0008000	0.0644986	1.6337866	0.0655000	0.0909653	1.4412335	0.1076000	0.2222754	1.2656379	-0.0127500	0.2407591	1.0093014	0.0702000	0.0464034	0.9607335	0.1076000	0.4843787	1.3759054	-0.0127500	0.6259418	1.1254180	0.0702000	0.4934872	0.9791928	0.1076000
